<?xml version="1.0" encoding="UTF-8" standalone="no"?>
<!-- Created with Inkscape (http://www.inkscape.org/) -->

<svg
   width="210mm"
   height="297mm"
   viewBox="0 0 210 297"
   version="1.1"
   id="svg5"
   inkscape:version="1.1.2 (0a00cf5339, 2022-02-04)"
   sodipodi:docname="drawing.svg"
   xmlns:inkscape="http://www.inkscape.org/namespaces/inkscape"
   xmlns:sodipodi="http://sodipodi.sourceforge.net/DTD/sodipodi-0.dtd"
   xmlns="http://www.w3.org/2000/svg"
   xmlns:svg="http://www.w3.org/2000/svg">
  <sodipodi:namedview
     id="namedview7"
     pagecolor="#ffffff"
     bordercolor="#666666"
     borderopacity="1.0"
     inkscape:pageshadow="2"
     inkscape:pageopacity="0.0"
     inkscape:pagecheckerboard="0"
     inkscape:document-units="mm"
     showgrid="false"
     inkscape:zoom="0.4187009"
     inkscape:cx="397.65857"
     inkscape:cy="560.06567"
     inkscape:window-width="1366"
     inkscape:window-height="704"
     inkscape:window-x="0"
     inkscape:window-y="0"
     inkscape:window-maximized="1"
     inkscape:current-layer="layer1" />
  <defs
     id="defs2" />
  <g
     inkscape:label="Layer 1"
     inkscape:groupmode="layer"
     id="layer1">
    <text
       xml:space="preserve"
       style="font-style:normal;font-weight:normal;font-size:10.5833px;line-height:1.25;font-family:sans-serif;fill:#000000;fill-opacity:1;stroke:none;stroke-width:0.264583"
       x="34.14315"
       y="128.8588"
       id="text4587"><tspan
         sodipodi:role="line"
         id="tspan4585"
         style="stroke-width:0.264583"
         x="34.14315"
         y="128.8588">Welcome!</tspan><tspan
         sodipodi:role="line"
         style="stroke-width:0.264583"
         x="34.14315"
         y="142.08792"
         id="tspan4589" /></text>
    <path
       style="fill:none;stroke:#000000;stroke-width:0.352777"
       id="path7726"
       d="m 34.176496,158.69993 c 15.405634,-7.0534 31.571988,-12.31635 47.709968,-17.40717 6.677236,-1.78751 13.465264,-3.74884 20.438446,-3.89206 2.69309,-0.0553 5.12004,0.17369 7.56782,1.33465 0.96099,0.45579 1.77111,1.17821 2.65667,1.76732 2.63929,2.31798 4.4229,5.47553 7.816,6.83772 3.1243,1.25427 4.192,1.02343 7.70352,1.28063 4.73773,0.0419 9.42839,-0.66668 14.0893,-1.42798 1.37845,-0.22515 5.21971,-1.00253 6.7939,-0.99139 0.91309,0.006 1.80823,0.25573 2.71235,0.38359 0.73304,0.5374 1.66133,0.87944 2.19912,1.61219 1.41409,1.92674 2.39599,6.14438 2.77524,8.28689 0.46429,2.62289 0.80018,7.36881 0.80419,10.0297 0.002,1.66388 -0.14272,3.32471 -0.21409,4.98706 -0.3724,4.45132 -1.2375,8.85077 -2.69426,13.07732 -0.80283,2.32926 -1.79282,4.78043 -3.28817,6.77634 -0.73194,0.97694 -1.67082,1.78015 -2.50622,2.67022 -1.03079,0.76158 -2.01767,1.58648 -3.09237,2.28473 -0.20059,0.13033 -0.47284,0.0893 -0.6956,0.17642 -1.35889,0.53161 -2.67013,1.1841 -4.04335,1.67753 -4.47065,1.60638 -9.12351,2.39519 -13.7748,3.26162 -4.5991,0.72865 -9.21497,1.35462 -13.84589,1.8436 -3.57021,0.37697 -3.91851,0.28564 -7.34289,0.85467 -1.13162,0.18803 -2.25267,0.43486 -3.37901,0.65229 -3.054484,0.74422 -6.077412,1.6105 -9.054739,2.61991 -1.400305,0.47475 -2.974129,0.99872 -4.285536,1.70973 -1.712754,0.92862 -3.372786,1.95134 -5.059182,2.927 -4.166084,2.69303 -5.078265,6.82104 -6.017752,11.38959 -0.983115,4.11786 -1.71872,8.27709 -2.138051,12.48886 -0.05406,1.7601 -0.0666,5.20458 1.711278,6.27904 0.602594,0.36418 1.317474,0.49723 1.97621,0.74585 2.756701,-1.37035 5.668272,-2.46554 8.270105,-4.11106 17.244577,-10.90627 29.383157,-20.98594 45.264527,-34.69906 29.4196,-25.40301 51.93089,-46.89787 80.70588,-73.66448 0,0 -0.074,0.0303 -0.074,0.0303 v 0 c -24.54734,22.83391 -54.86388,51.58922 -80.70609,73.66398 -11.36808,9.71077 -29.10038,23.99193 -42.899834,32.83517 -2.351741,1.50709 -4.963504,2.56354 -7.445256,3.8453 -0.598164,-0.21359 -1.245317,-0.32168 -1.794491,-0.64079 -1.764848,-1.02549 -1.620388,-4.28874 -1.60338,-5.97875 0.378309,-4.18143 1.084135,-8.31353 2.053582,-12.39996 1.015719,-4.66807 1.926809,-8.41066 6.18717,-11.12757 -0.450919,0.24625 -1.842482,0.89409 -1.352754,0.73874 0.705466,-0.22378 1.324414,-0.66396 2.008383,-0.94672 3.677473,-1.52026 7.567769,-2.50047 11.396043,-3.54305 2.901907,-0.57687 3.903457,-0.82981 6.857317,-1.1978 5.94908,-0.74113 11.93855,-1.20242 17.8477,-2.26144 2.78788,-0.50733 6.63132,-1.15435 9.39337,-1.8607 6.59622,-1.68688 12.94281,-4.61399 18.21189,-8.96684 0.82639,-0.91475 1.75753,-1.74478 2.47917,-2.74423 1.4451,-2.00144 2.42008,-4.51056 3.18943,-6.82329 1.41225,-4.24536 2.24378,-8.65178 2.57245,-13.11118 0.0656,-1.67053 0.20417,-3.3398 0.19665,-5.0116 -0.0121,-2.69309 -0.36588,-7.4426 -0.8132,-10.09587 -0.35628,-2.1133 -1.34276,-6.68778 -2.68653,-8.6236 -0.55072,-0.79336 -1.53177,-1.17667 -2.29765,-1.765 -0.93414,-0.14537 -1.8571,-0.42609 -2.80243,-0.43611 -1.60696,-0.017 -5.52409,0.83249 -6.93221,1.0761 -4.637,0.8022 -9.30923,1.52932 -14.03091,1.48478 -3.46926,-0.26903 -4.37313,-0.0385 -7.44356,-1.27206 -3.3731,-1.35519 -5.20663,-4.48771 -7.86247,-6.77154 -0.91366,-0.61099 -1.74647,-1.36496 -2.74099,-1.83296 -2.54979,-1.19988 -5.05501,-1.39081 -7.8522,-1.30118 -7.143067,0.22888 -14.080217,2.29179 -20.911978,4.16832 -10.476981,3.35707 -20.901948,6.83023 -31.247849,10.57627 -4.758807,1.72307 -9.220089,3.36768 -13.840034,5.29873 -0.57953,0.24224 -1.140521,0.52664 -1.71078,0.78996 0,0 -3.107153,2.44327 -3.107153,2.44327 z" />
  </g>
</svg>
